<?xml version="1.0" encoding="utf-8"?>

<!DOCTYPE svg PUBLIC "-//W3C//DTD SVG 1.1//EN" "http://www.w3.org/Graphics/SVG/1.1/DTD/svg11.dtd">
<!-- Uploaded to: SVG Repo, www.svgrepo.com, Generator: SVG Repo Mixer Tools -->
<svg height="800px" width="800px" version="1.1" id="_x32_" xmlns="http://www.w3.org/2000/svg" xmlns:xlink="http://www.w3.org/1999/xlink" 
	 viewBox="0 0 512 512"  xml:space="preserve">
<style type="text/css">
	.st0{fill:#000000;}
</style>
<g>
	<path class="st0" d="M500.177,55.798c0,0-21.735-7.434-39.551-11.967C411.686,31.369,308.824,24.727,256,24.727
		S100.314,31.369,51.374,43.831c-17.816,4.534-39.551,11.967-39.551,11.967c-7.542,2.28-12.444,9.524-11.76,17.374l8.507,97.835
		c0.757,8.596,7.957,15.201,16.581,15.201h84.787c8.506,0,15.643-6.416,16.553-14.878l4.28-39.973
		c0.847-7.93,7.2-14.138,15.148-14.815c0,0,68.484-6.182,110.081-6.182c41.586,0,110.08,6.182,110.08,6.182
		c7.949,0.676,14.302,6.885,15.148,14.815l4.29,39.973c0.9,8.462,8.038,14.878,16.545,14.878h84.777
		c8.632,0,15.832-6.605,16.589-15.201l8.507-97.835C512.621,65.322,507.72,58.078,500.177,55.798z"/>
	<path class="st0" d="M357.503,136.629h-55.365v46.137h-92.275v-46.137h-55.365c0,0-9.228,119.957-119.957,207.618
		c0,32.296,0,129.95,0,129.95c0,7.218,5.857,13.076,13.075,13.076h416.768c7.218,0,13.076-5.858,13.076-13.076
		c0,0,0-97.654,0-129.95C366.73,256.586,357.503,136.629,357.503,136.629z M338.768,391.42v37.406h-37.396V391.42H338.768z
		 M338.768,332.27v37.406h-37.396V332.27H338.768z M301.372,310.518v-37.396h37.396v37.396H301.372z M274.698,391.42v37.406h-37.396
		V391.42H274.698z M274.698,332.27v37.406h-37.396V332.27H274.698z M274.698,273.122v37.396h-37.396v-37.396H274.698z
		 M210.629,391.42v37.406h-37.397V391.42H210.629z M210.629,332.27v37.406h-37.397V332.27H210.629z M210.629,273.122v37.396h-37.397
		v-37.396H210.629z"/>
</g>
</svg>